<svg xmlns="http://www.w3.org/2000/svg" width="1200" height="400" viewBox="0 0 1200 400" role="img" aria-label="AI 前端调试技巧：把被遮挡翻译成尺寸约束">
  <defs>
    <linearGradient id="accent" x1="0%" y1="0%" x2="100%" y2="0%">
      <stop offset="0%" stop-color="#60A5FA"/>
      <stop offset="100%" stop-color="#34D399"/>
    </linearGradient>
    <pattern id="dots" width="26" height="26" patternUnits="userSpaceOnUse">
      <circle cx="2" cy="2" r="1.3" fill="#26324a"/>
    </pattern>
  </defs>
  <rect width="1200" height="400" fill="#0B1220"/>
  <rect width="1200" height="400" fill="url(#dots)" opacity="0.55"/>
  <rect x="0" y="0" width="6" height="400" fill="url(#accent)"/>
  <text x="1104" y="64" text-anchor="end" font-family="ui-monospace,'SF Mono',Menlo,monospace" font-size="20" fill="#64748B">zata.cc</text>
  <circle cx="940" cy="200" r="128" fill="none" stroke="#1c2a44" stroke-width="1.5"/>
    <line x1="852" y1="200" x2="886" y2="200" stroke="#60A5FA" stroke-width="2.5" stroke-linecap="round" opacity="0.8"/>
    <path d="M894 200 l-11 -7 M894 200 l-11 7" stroke="#34D399" stroke-width="2.5" fill="none" stroke-linecap="round"/>
    <line x1="986" y1="200" x2="1020" y2="200" stroke="#60A5FA" stroke-width="2.5" stroke-linecap="round" opacity="0.8"/>
    <path d="M1028 200 l-11 -7 M1028 200 l-11 7" stroke="#34D399" stroke-width="2.5" fill="none" stroke-linecap="round"/>
    <rect x="760" y="171" width="92" height="58" rx="13" fill="#0e1730" stroke="#3b4a68" stroke-width="2.5"/>
    <rect x="780" y="192" width="52" height="10" rx="5" fill="#334155" opacity="1"/>
    <rect x="894" y="171" width="92" height="58" rx="13" fill="#101a2e" stroke="url(#accent)" stroke-width="2.5"/>
    <rect x="914" y="192" width="52" height="10" rx="5" fill="#60A5FA" opacity="0.85"/>
    <rect x="1028" y="171" width="92" height="58" rx="13" fill="#0e1730" stroke="#3b4a68" stroke-width="2.5"/>
    <rect x="1048" y="192" width="52" height="10" rx="5" fill="#334155" opacity="1"/>
    <text x="96" y="166" font-family="'PingFang SC','Noto Sans SC','Helvetica Neue',sans-serif" font-size="56" font-weight="700" fill="#F8FAFC">AI 前端调试技巧：</text>
  <text x="96" y="238" font-family="'PingFang SC','Noto Sans SC','Helvetica Neue',sans-serif" font-size="56" font-weight="700" fill="#F8FAFC">把被遮挡翻译成尺寸约束</text>
  <rect x="96" y="264" width="112" height="6" rx="3" fill="url(#accent)"/>
  <rect x="96" y="296" width="165" height="42" rx="21" fill="#152238" stroke="#2c3a58" stroke-width="1.5"/>
  <text x="114" y="324" font-family="ui-monospace,'SF Mono',Menlo,monospace" font-size="21" fill="#9FB3D1">AI-Frontend</text>
</svg>
