<svg xmlns="http://www.w3.org/2000/svg" width="1200" height="400" viewBox="0 0 1200 400" role="img" aria-label="Agent 能跑代码之后，最危险的事才刚刚开始">
  <defs>
    <linearGradient id="accent" x1="0%" y1="0%" x2="100%" y2="0%">
      <stop offset="0%" stop-color="#7C9CF5"/>
      <stop offset="100%" stop-color="#A78BFA"/>
    </linearGradient>
    <pattern id="dots" width="26" height="26" patternUnits="userSpaceOnUse">
      <circle cx="2" cy="2" r="1.3" fill="#26324a"/>
    </pattern>
  </defs>
  <rect width="1200" height="400" fill="#0B1220"/>
  <rect width="1200" height="400" fill="url(#dots)" opacity="0.55"/>
  <rect x="0" y="0" width="6" height="400" fill="url(#accent)"/>
  <text x="1104" y="64" text-anchor="end" font-family="ui-monospace,'SF Mono',Menlo,monospace" font-size="20" fill="#64748B">zata.cc</text>
  <circle cx="940" cy="200" r="128" fill="none" stroke="#1c2a44" stroke-width="1.5"/>
    <line x1="806" y1="148" x2="1074" y2="148" stroke="#2c3a58" stroke-width="2"/>
    <line x1="806" y1="148" x2="858" y2="256" stroke="#2c3a58" stroke-width="2"/>
    <line x1="1074" y1="148" x2="1022" y2="256" stroke="#2c3a58" stroke-width="2"/>
    <line x1="858" y1="256" x2="1022" y2="256" stroke="#2c3a58" stroke-width="2"/>
    <line x1="806" y1="148" x2="1022" y2="256" stroke="#2c3a58" stroke-width="2"/>
    <circle cx="806" cy="148" r="26" fill="#0e1730" stroke="url(#accent)" stroke-width="2.5"/>
    <circle cx="806" cy="148" r="16" fill="#7C9CF5" opacity="0.75"/>
    <circle cx="1074" cy="148" r="18" fill="#0e1730" stroke="#3b4a68" stroke-width="2.5"/>
    <circle cx="1074" cy="148" r="8" fill="#7C9CF5" opacity="0.25"/>
    <circle cx="858" cy="256" r="18" fill="#0e1730" stroke="#3b4a68" stroke-width="2.5"/>
    <circle cx="858" cy="256" r="8" fill="#7C9CF5" opacity="0.25"/>
    <circle cx="1022" cy="256" r="18" fill="#0e1730" stroke="#3b4a68" stroke-width="2.5"/>
    <circle cx="1022" cy="256" r="8" fill="#7C9CF5" opacity="0.25"/>
    <text x="96" y="166" font-family="'PingFang SC','Noto Sans SC','Helvetica Neue',sans-serif" font-size="56" font-weight="700" fill="#F8FAFC">Agent 能跑代码之后，</text>
  <text x="96" y="238" font-family="'PingFang SC','Noto Sans SC','Helvetica Neue',sans-serif" font-size="56" font-weight="700" fill="#F8FAFC">最危险的事才刚刚开始</text>
  <rect x="96" y="264" width="112" height="6" rx="3" fill="url(#accent)"/>
  <rect x="96" y="296" width="141" height="42" rx="21" fill="#152238" stroke="#2c3a58" stroke-width="1.5"/>
  <text x="114" y="324" font-family="ui-monospace,'SF Mono',Menlo,monospace" font-size="21" fill="#9FB3D1">智能体编排</text>
  <rect x="251" y="296" width="95" height="42" rx="21" fill="#152238" stroke="#2c3a58" stroke-width="1.5"/>
  <text x="269" y="324" font-family="ui-monospace,'SF Mono',Menlo,monospace" font-size="21" fill="#9FB3D1">Agent</text>
</svg>
