<svg xmlns="http://www.w3.org/2000/svg" width="1200" height="400" viewBox="0 0 1200 400" role="img" aria-label="LogQL 查询语言详解：先选流，再过滤，最后才解析">
  <defs>
    <linearGradient id="accent" x1="0%" y1="0%" x2="100%" y2="0%">
      <stop offset="0%" stop-color="#5B87BF"/>
      <stop offset="100%" stop-color="#22D3EE"/>
    </linearGradient>
    <pattern id="dots" width="26" height="26" patternUnits="userSpaceOnUse">
      <circle cx="2" cy="2" r="1.3" fill="#26324a"/>
    </pattern>
  </defs>
  <rect width="1200" height="400" fill="#0B1220"/>
  <rect width="1200" height="400" fill="url(#dots)" opacity="0.55"/>
  <rect x="0" y="0" width="6" height="400" fill="url(#accent)"/>
  <text x="1104" y="64" text-anchor="end" font-family="ui-monospace,'SF Mono',Menlo,monospace" font-size="20" fill="#64748B">zata.cc</text>
  <circle cx="930" cy="200" r="128" fill="none" stroke="#1c2a44" stroke-width="1.5"/>
  <rect x="780" y="122" width="300" height="168" rx="14" fill="#101a2e" stroke="url(#accent)" stroke-width="2.5"/>
  <line x1="780" y1="154" x2="1080" y2="154" stroke="#26324a" stroke-width="1.5"/>
  <circle cx="802" cy="138" r="5" fill="#5B87BF"/>
  <circle cx="822" cy="138" r="5" fill="#22D3EE" opacity="0.7"/>
  <circle cx="842" cy="138" r="5" fill="#334155"/>
  <rect x="802" y="176" width="180" height="11" rx="5.5" fill="#334155"/>
  <rect x="802" y="200" width="126" height="11" rx="5.5" fill="#5B87BF" opacity="0.65"/>
  <rect x="802" y="224" width="152" height="11" rx="5.5" fill="#26324a"/>
  <path d="M802 258 l12 8 -12 8" fill="none" stroke="#22D3EE" stroke-width="3" stroke-linecap="round" stroke-linejoin="round"/>
  <rect x="826" y="261" width="70" height="9" rx="4.5" fill="#334155"/>
    <text x="96" y="166" font-family="'PingFang SC','Noto Sans SC','Helvetica Neue',sans-serif" font-size="48" font-weight="700" fill="#F8FAFC">LogQL 查询语言详解：</text>
  <text x="96" y="238" font-family="'PingFang SC','Noto Sans SC','Helvetica Neue',sans-serif" font-size="48" font-weight="700" fill="#F8FAFC">先选流，再过滤，最后才解析</text>
  <rect x="96" y="264" width="112" height="6" rx="3" fill="url(#accent)"/>
  <rect x="96" y="296" width="120" height="42" rx="21" fill="#152238" stroke="#2c3a58" stroke-width="1.5"/>
  <text x="114" y="324" font-family="ui-monospace,'SF Mono',Menlo,monospace" font-size="21" fill="#9FB3D1">可观测性</text>
</svg>
