<svg xmlns="http://www.w3.org/2000/svg" width="1200" height="400" viewBox="0 0 1200 400" role="img" aria-label="Blender 详解：奥斯卡和 AI Agent 为什么都选了它">
  <defs>
    <linearGradient id="accent" x1="0%" y1="0%" x2="100%" y2="0%">
      <stop offset="0%" stop-color="#5B87BF"/>
      <stop offset="100%" stop-color="#8B5CF6"/>
    </linearGradient>
    <pattern id="dots" width="26" height="26" patternUnits="userSpaceOnUse">
      <circle cx="2" cy="2" r="1.3" fill="#26324a"/>
    </pattern>
  </defs>
  <rect width="1200" height="400" fill="#0B1220"/>
  <rect width="1200" height="400" fill="url(#dots)" opacity="0.55"/>
  <rect x="0" y="0" width="6" height="400" fill="url(#accent)"/>
  <text x="1104" y="64" text-anchor="end" font-family="ui-monospace,'SF Mono',Menlo,monospace" font-size="20" fill="#64748B">zata.cc</text>
  <circle cx="940" cy="200" r="128" fill="none" stroke="#1c2a44" stroke-width="1.5"/>
    <rect x="796" y="138" width="248" height="52" rx="13" fill="#0e1730" stroke="#3b4a68" stroke-width="2.5"/>
    <rect x="816" y="159" width="90" height="10" rx="5" fill="#334155"/>
    <rect x="816" y="178" width="248" height="52" rx="13" fill="#0e1730" stroke="#2c3a58" stroke-width="2.5"/>
    <rect x="836" y="199" width="90" height="10" rx="5" fill="#334155"/>
    <rect x="836" y="218" width="248" height="52" rx="13" fill="#0e1730" stroke="url(#accent)" stroke-width="2.5"/>
    <rect x="856" y="239" width="90" height="10" rx="5" fill="#334155"/>
    <circle cx="1032" cy="244" r="7" fill="#8B5CF6"/>
    <text x="96" y="166" font-family="'PingFang SC','Noto Sans SC','Helvetica Neue',sans-serif" font-size="48" font-weight="700" fill="#F8FAFC">Blender 详解：奥斯卡和</text>
  <text x="96" y="238" font-family="'PingFang SC','Noto Sans SC','Helvetica Neue',sans-serif" font-size="48" font-weight="700" fill="#F8FAFC">AI Agent 为什么都选了它</text>
  <rect x="96" y="264" width="112" height="6" rx="3" fill="url(#accent)"/>
  <rect x="96" y="296" width="118" height="42" rx="21" fill="#152238" stroke="#2c3a58" stroke-width="1.5"/>
  <text x="114" y="324" font-family="ui-monospace,'SF Mono',Menlo,monospace" font-size="21" fill="#9FB3D1">Blender</text>
  <rect x="228" y="296" width="78" height="42" rx="21" fill="#152238" stroke="#2c3a58" stroke-width="1.5"/>
  <text x="246" y="324" font-family="ui-monospace,'SF Mono',Menlo,monospace" font-size="21" fill="#9FB3D1">教程</text>
</svg>
